<svg t="1732016165830" class="icon" viewBox="0 0 1024 1024" version="1.1" xmlns="http://www.w3.org/2000/svg" p-id="5391" width="200" height="200"><path d="M527.173073 47.606251c-247.248174 0-447.680089 200.432938-447.680089 447.680089 0 247.248174 200.432938 447.680089 447.680089 447.680089 247.246127 0 447.680089-200.431915 447.680089-447.680089C974.854185 248.039189 774.420223 47.606251 527.173073 47.606251zM527.173073 902.836453c-225.083361 0-407.551136-182.465728-407.551136-407.551136 0-225.083361 182.467775-407.550113 407.551136-407.550113 225.085408 0 407.551136 182.466752 407.551136 407.550113C934.724209 720.371748 752.258481 902.836453 527.173073 902.836453zM392.257314 692.388417c0 15.22782 13.325493 27.687596 29.607318 27.687596l211.024158 0c16.288988 0 29.612435-12.459776 29.612435-27.687596l0.004093 0 0-22.658046c0-15.22782-13.326517-27.688619-29.615505-27.688619L421.863608 642.041752c-16.279778 0-29.607318 12.4608-29.607318 27.688619L392.25629 692.388417 392.257314 692.388417zM662.29554 315.454602c0-16.281825-13.322423-29.608342-29.612435-29.608342L421.66304 285.84626c-16.288988 0-29.611411 13.325493-29.611411 29.608342l0 124.082016c0 16.285918 13.322423 29.607318 29.611411 29.607318l211.021088 0c16.284895 0 29.612435-13.322423 29.612435-29.607318L662.296563 315.454602 662.29554 315.454602zM765.048785 410.507468c0-21.460778-17.765619-39.016619-39.477107-39.016619l-17.71036 0c-14.854313 0-27.26497 8.526187-27.26497 29.747511l0 54.357002c0 16.09456-13.325493 29.262464-29.611411 29.262464L403.772578 484.857826c-16.284895 0-29.611411-13.168927-29.611411-29.262464l0-54.126758c0-17.72264-7.247054-29.977755-26.922163-29.977755l-18.46249 0c-21.711488 0-39.477107 17.555841-39.477107 39.016619l0 243.862054c0 21.459754 17.765619 39.015595 39.477107 39.015595l27.750017 0c12.881378 0 17.499559-7.219425 17.499559-20.066011l0-19.203364c0-16.096607 13.323447-29.267581 29.608342-29.267581l247.080352 0c16.286941 0 29.612435 13.168927 29.612435 29.267581l0 23.332405c0 10.897188 4.090155 15.936971 15.696494 15.936971l29.547966 0c21.711488 0 39.477107-17.555841 39.477107-39.015595L765.048785 410.507468 765.048785 410.507468z" fill="#272636" p-id="5392"></path></svg>