<svg t="1732615721555" class="icon" viewBox="0 0 1024 1024" version="1.1" xmlns="http://www.w3.org/2000/svg" p-id="16885" width="200" height="200"><path d="M509.662769 192.781678l133.511783 77.082586L517.855358 342.217129c-9.788947 5.650697-13.142322 18.167778-7.491625 27.956725 3.791349 6.566556 10.670014 10.236132 17.743106 10.236132 3.472078 0 6.991228-0.88516 10.213619-2.745531l124.413568-71.829955 0 148.684344c0 11.30344 9.162684 20.466124 20.466124 20.466124s20.466124-9.162684 20.466124-20.466124l0-149.730163 123.655298 71.39198c3.222391 1.861394 6.741541 2.745531 10.213619 2.745531 7.073092 0 13.95278-3.670599 17.743106-10.236132 5.65172-9.788947 2.297322-22.306029-7.490601-27.956725l-122.749672-70.869071 120.763434-69.722968c9.787924-5.650697 13.143345-18.167778 7.490601-27.956725-5.650697-9.788947-18.169825-13.143345-27.956725-7.490601L703.667298 234.938823 703.667298 85.248569c0-11.30344-9.162684-20.466124-20.466124-20.466124s-20.466124 9.162684-20.466124 20.466124l0 148.644435L530.128893 157.333328c-9.7869-5.652743-22.305005-2.299369-27.956725 7.490601C496.520447 174.612876 499.873822 187.129958 509.662769 192.781678z" fill="#07731E" p-id="16886"></path><path d="M938.752454 722.217792c0.169869-0.2415 0.332575-0.487094 0.49221-0.73678 0.186242-0.291642 0.366344-0.585331 0.537236-0.88516 0.167822-0.292666 0.324388-0.590448 0.477884-0.8913 0.137123-0.271176 0.270153-0.542352 0.393973-0.818645 0.153496-0.339738 0.295735-0.683569 0.431835-1.033539 0.100284-0.258896 0.196475-0.517793 0.285502-0.780783 0.12382-0.36225 0.236384-0.728594 0.340761-1.100054 0.076748-0.275269 0.147356-0.550539 0.212848-0.828878 0.082888-0.353041 0.157589-0.708128 0.222057-1.067308 0.058328-0.325411 0.106424-0.651846 0.149403-0.980327 0.040932-0.313132 0.077771-0.627287 0.103354-0.944512 0.032746-0.394996 0.050142-0.789992 0.060375-1.187035 0.004093-0.170892 0.025583-0.336668 0.025583-0.508583L942.485475 444.287829c0-11.30344-9.162684-20.466124-20.466124-20.466124s-20.466124 9.162684-20.466124 20.466124l0 254.477832L508.572948 930.535305c-0.633427 0.373507-1.236154 0.778736-1.813299 1.207501L109.364827 705.181791c0.091074-0.783853 0.150426-1.576915 0.150426-2.384303L109.515253 269.266653 415.415244 88.506776c9.730619-5.750981 12.958126-18.300808 7.208169-28.03245-5.750981-9.731642-18.301831-12.957103-28.03245-7.208169L78.636988 239.96735c-0.148379 0.088004-0.281409 0.191358-0.426719 0.282433-0.332575 0.207731-0.660032 0.420579-0.979304 0.647753-0.26299 0.185218-0.51677 0.378623-0.768503 0.574075-0.258896 0.202615-0.512676 0.407276-0.76134 0.62217-0.278339 0.239454-0.547469 0.485047-0.811482 0.73678-0.204661 0.196475-0.404206 0.396019-0.599657 0.599657-0.26913 0.279363-0.529049 0.564865-0.779759 0.857531-0.179079 0.208754-0.350994 0.421602-0.521886 0.636496-0.233314 0.296759-0.460488 0.596588-0.676405 0.903579-0.171915 0.24457-0.336668 0.494257-0.49835 0.747014-0.184195 0.288572-0.363274 0.579191-0.532119 0.87595-0.168846 0.295735-0.327458 0.597611-0.481977 0.901533-0.135076 0.268106-0.267083 0.536212-0.38988 0.809435-0.154519 0.342808-0.297782 0.689708-0.434905 1.041726-0.099261 0.25685-0.194428 0.5137-0.283456 0.773619-0.12382 0.364297-0.237407 0.732687-0.340761 1.105171-0.076748 0.274246-0.147356 0.548492-0.211824 0.825808-0.082888 0.353041-0.156566 0.708128-0.221034 1.067308-0.058328 0.325411-0.106424 0.651846-0.149403 0.979304-0.039909 0.313132-0.076748 0.626263-0.102331 0.943488-0.032746 0.393973-0.050142 0.789992-0.060375 1.186012-0.004093 0.168846-0.025583 0.332575-0.025583 0.50142L68.579935 702.796464c0 2.532683 0.481977 4.947685 1.323135 7.186679-3.477194 9.247618 0.150426 19.905352 9.006118 24.954345l416.485623 237.4449c3.198855 1.822508 6.681166 2.689249 10.117428 2.689249 5.590322 0 11.048637-2.301416 14.96483-6.497994 3.042289-0.223081 6.081509-1.12666 8.885368-2.780323L932.417165 728.08543c0.151449-0.089028 0.286526-0.194428 0.434905-0.286526 0.330528-0.206708 0.657986-0.418532 0.975211-0.64366 0.265036-0.187265 0.521886-0.381693 0.775666-0.580215 0.255827-0.200568 0.508583-0.403183 0.754177-0.615007 0.281409-0.2415 0.553609-0.490164 0.818645-0.743944 0.201591-0.193405 0.399089-0.38988 0.592494-0.591471 0.271176-0.282433 0.534166-0.569982 0.786922-0.865717 0.176009-0.205685 0.346901-0.414439 0.514723-0.627287C938.306292 722.831776 938.53449 722.527854 938.752454 722.217792z" fill="#07731E" p-id="16887"></path></svg>