<svg t="1732614427967" class="icon" viewBox="0 0 1024 1024" version="1.1" xmlns="http://www.w3.org/2000/svg" p-id="10124" width="200" height="200"><path d="M988.672 519.168l-0.512-275.456-130.56 9.216 0.512 29.696-67.072 9.728-98.304 10.752c-33.28-10.24-131.072-38.912-153.088-34.304-9.216 2.048-30.72 17.92-56.32 38.4-25.6-7.68-115.2-30.208-177.152-1.536l-31.232-19.456 6.144-10.752-103.936-73.728L40.96 438.784 152.064 491.52l9.216-15.36 67.584 33.28c0 32.768 14.848 49.664 25.6 58.368-2.048 6.656-3.072 13.824-2.56 20.992 1.024 14.336 7.68 26.112 18.432 33.792 7.168 5.12 15.872 7.68 25.088 7.68 5.12 0 9.728-1.024 14.848-2.56 1.024 13.824 7.168 26.112 18.432 34.304 7.168 5.12 15.872 7.68 25.088 7.68 3.072 0 6.656-0.512 9.728-1.024-1.024 16.384 5.632 31.744 18.432 40.96 7.168 5.12 15.872 7.68 25.088 7.68 5.12 0 9.728-1.024 14.848-2.56 1.024 13.824 7.168 26.112 18.432 34.304 7.168 5.12 15.872 7.68 25.088 7.68 13.824 0 27.136-5.632 37.376-15.872l16.896 5.632c13.824 5.12 26.112 7.68 37.376 7.68s21.504-2.56 30.208-7.68c13.312-8.192 19.968-20.48 23.04-29.184 4.096 0.512 7.68 1.024 11.264 1.024 15.36 0 28.16-4.608 37.376-14.336 11.776-12.288 14.848-28.672 15.36-41.472h2.56c15.872 0 27.648-5.12 35.84-14.848 13.824-16.384 11.776-41.472 8.192-58.368 16.384-1.536 28.672-7.68 36.864-17.92 11.264-14.336 11.264-32.256 9.728-45.568 21.504-2.048 57.856-9.216 72.704-38.4h18.944l0.512 29.184 129.024 2.56zM319.488 590.336c-6.144 8.704-15.36 13.824-24.064 13.824-3.584 0-7.168-1.024-10.24-3.072-4.608-3.072-7.168-8.192-7.68-14.336-0.512-7.168 1.536-14.848 6.144-21.504 6.144-8.704 15.36-13.824 24.064-13.824 3.584 0 7.168 1.024 10.24 3.072 4.608 3.072 7.168 8.192 7.68 14.336 1.024 7.168-1.536 14.848-6.144 21.504z m58.368 39.424c-6.144 8.704-15.36 13.824-24.064 13.824-3.584 0-7.168-1.024-10.24-3.072-9.728-6.656-10.24-23.04-1.536-35.84 6.144-8.704 15.36-13.824 24.064-13.824 3.584 0 7.168 1.024 10.24 3.072 9.728 6.656 10.752 23.04 1.536 35.84z m53.248 47.616c-6.144 8.704-15.36 13.824-24.064 13.824-3.584 0-7.168-1.024-10.24-3.072-9.728-6.656-10.24-23.04-1.536-35.84 6.144-8.704 15.36-13.824 24.064-13.824 3.584 0 7.168 1.024 10.24 3.072 4.608 3.072 7.168 8.192 7.68 14.336 1.024 7.168-1.536 14.848-6.144 21.504z m58.368 39.424c-6.144 8.704-15.36 13.824-24.064 13.824-3.584 0-7.168-1.024-10.24-3.072-9.728-6.656-10.24-23.04-1.536-35.84 6.144-8.704 15.36-13.824 24.064-13.824 3.584 0 7.168 1.024 10.24 3.072 4.608 3.072 7.168 8.192 7.68 14.336 1.024 7.68-1.536 14.848-6.144 21.504z m248.32-161.792c-5.12 6.656-15.36 9.216-30.72 8.192l-62.976-24.576-9.216 24.064 59.392 23.04c4.096 13.312 7.68 35.84-0.512 45.056-5.632 6.656-18.432 6.144-28.672 4.096l-59.392-25.6-10.24 23.552 53.76 23.04c0 8.704-1.024 21.504-8.192 28.672-5.632 5.632-14.336 7.68-26.624 6.144l-52.736-18.432-8.704 24.576 33.28 11.776c-1.536 4.608-5.12 11.264-11.776 15.36-9.728 6.144-25.6 5.632-45.056-2.048l-10.752-3.584c3.072-8.192 4.608-16.896 3.584-25.088-1.024-13.824-7.68-26.112-18.432-33.792-7.168-5.12-15.872-7.68-25.088-7.68-5.12 0-9.728 1.024-14.848 2.56v-0.512c-1.024-14.336-7.68-26.112-18.432-33.792-7.168-5.12-15.872-7.68-25.088-7.68-3.072 0-6.656 0.512-9.728 1.024 1.024-16.384-5.632-31.744-18.432-40.96-7.168-5.12-15.872-7.68-25.088-7.68-5.12 0-9.728 1.024-14.848 2.56v-0.512c-1.024-13.824-7.68-26.112-18.432-33.792-7.168-5.12-15.872-7.68-25.088-7.68-15.36 0-30.208 7.168-40.96 19.456-6.656-6.656-15.36-19.968-11.776-46.592L174.08 455.68l87.04-147.456 44.032 26.624 6.656-3.584c44.032-24.064 112.128-12.8 147.456-4.096-30.208 26.112-61.44 54.784-80.384 72.192l-1.536 1.536-1.024 2.048c-1.536 2.56-12.8 25.088-3.072 45.568 4.096 8.192 12.8 18.944 33.792 23.04 40.448 8.192 104.448-37.376 129.024-56.32C555.52 433.152 604.672 473.6 653.312 473.088l87.552 48.64c2.048 8.704 4.096 24.576-3.072 33.28z m84.992-93.696l-3.072 9.216c-8.192 27.136-52.736 29.696-64.512 29.696l-65.024-35.84c3.072-1.536 6.144-3.584 8.704-5.632l-15.36-20.992c-52.736 38.4-136.704-47.616-137.216-48.128l-8.192-8.704-9.216 7.68c-30.72 25.088-89.6 63.488-116.736 57.856-8.192-1.536-13.312-4.608-15.36-8.704-3.072-6.144 0-15.872 2.048-20.48 61.44-57.344 132.608-118.784 145.92-122.88 11.776-2.048 83.456 16.384 143.36 34.304l2.56 1.024 103.936-11.264 64-9.216 1.536 152.576h-37.376z" fill="#FFB517" p-id="10125"></path></svg>