<svg t="1732067779771" class="icon" viewBox="0 0 1024 1024" version="1.1" xmlns="http://www.w3.org/2000/svg" p-id="8061" width="200" height="200"><path d="M841.5 956.3h-659c-63.1 0-114.4-51.3-114.4-114.4V265.3c0-63.1 51.3-114.4 114.4-114.4h659c63.1 0 114.4 51.3 114.4 114.4v576.6c0 63.1-51.4 114.4-114.4 114.4zM182.5 215c-27.8 0-50.4 22.6-50.4 50.4V842c0 27.8 22.6 50.4 50.4 50.4h659c27.8 0 50.4-22.6 50.4-50.4V265.3c0-27.8-22.6-50.4-50.4-50.4h-659z" fill="#0d7825" p-id="8062"></path><path d="M685 425.5H339c-17.6 0-32 14.4-32 32s14.4 32 32 32h346c17.6 0 32-14.4 32-32s-14.4-32-32-32z m0 207.4H339c-17.6 0-32 14.4-32 32s14.4 32 32 32h346c17.6 0 32-14.4 32-32s-14.4-32-32-32zM326.5 66.3c-17.6 0-32 14.4-32 32v141c0 17.6 14.4 32 32 32s32-14.4 32-32v-141c0-17.6-14.4-32-32-32z m371 0c-17.6 0-32 14.4-32 32v141c0 17.6 14.4 32 32 32s32-14.4 32-32v-141c0-17.6-14.4-32-32-32z" fill="#0d7825" p-id="8063"></path></svg>